<svg width="146" height="28" viewBox="0 0 146 28" fill="none" xmlns="http://www.w3.org/2000/svg">
<path d="M8.09194 1.456C8.09194 2.87466 7.61594 5.656 6.66394 9.8C7.78394 8.99733 8.79194 8.596 9.68794 8.596C10.6026 8.596 11.3773 8.97867 12.0119 9.744C12.6653 10.4907 12.9919 11.6387 12.9919 13.188C12.9919 15.7827 12.4786 17.7893 11.4519 19.208C10.4439 20.6267 9.21194 21.336 7.75594 21.336C7.2146 21.336 6.66394 21.2707 6.10394 21.14C5.5626 21.0093 5.15194 20.8693 4.87194 20.72L4.45194 20.524C3.25727 20.9347 2.0906 21.14 0.951936 21.14C0.839936 21.0467 0.783936 20.5987 0.783936 19.796C0.783936 18.9747 1.3066 16.2867 2.35194 11.732C3.39727 7.15867 3.91994 4.032 3.91994 2.352C3.91994 2.05333 3.87327 1.67066 3.77994 1.204C5.23594 0.699998 6.6266 0.447998 7.95194 0.447998C8.04527 0.709331 8.09194 1.04533 8.09194 1.456ZM7.83994 10.976C7.48527 10.976 6.95327 11.144 6.24394 11.48C5.38527 15.1013 4.9186 17.696 4.84394 19.264C5.40394 19.5067 5.93594 19.628 6.43994 19.628C7.14927 19.628 7.73727 18.9747 8.20394 17.668C8.68927 16.3613 8.93194 14.924 8.93194 13.356C8.93194 11.7693 8.56794 10.976 7.83994 10.976Z" fill="#4C997F"/>
<path d="M18.2131 21.336C16.9251 21.336 15.9171 20.888 15.1891 19.992C14.4611 19.0773 14.0971 17.808 14.0971 16.184C14.0971 14.112 14.6477 12.3293 15.7491 10.836C16.8691 9.34266 18.4091 8.596 20.3691 8.596L21.3771 8.652C21.6944 8.484 22.0491 8.4 22.4411 8.4C23.9157 8.4 24.6531 9.79066 24.6531 12.572C25.4184 12.5347 26.1931 12.432 26.9771 12.264L27.4251 12.152L27.5931 13.244C26.9771 13.5053 26.1464 13.7387 25.1011 13.944L24.5411 14.056C24.1864 16.016 23.4677 17.724 22.3851 19.18C21.3024 20.6173 19.9117 21.336 18.2131 21.336ZM19.7251 18.928C20.5091 18.928 21.2091 18.424 21.8251 17.416C22.4597 16.408 22.8984 15.344 23.1411 14.224C21.1437 14.224 20.1451 13.4773 20.1451 11.984C20.1451 11.3867 20.2664 10.8267 20.5091 10.304L20.6491 10.024C20.5744 9.98666 20.4811 9.968 20.3691 9.968C20.2571 9.968 20.1731 9.98666 20.1171 10.024C19.6504 10.3227 19.2117 11.0227 18.8011 12.124C18.3904 13.2253 18.1851 14.4853 18.1851 15.904C18.1851 17.92 18.6984 18.928 19.7251 18.928Z" fill="#4C997F"/>
<path d="M25.7007 18.9C25.7007 18.0973 25.9433 16.7347 26.4287 14.812C26.914 12.8707 27.1567 11.6853 27.1567 11.256C27.1567 10.808 26.8207 10.22 26.1487 9.492L26.1767 9.128C27.446 8.86666 29.1167 8.736 31.1887 8.736C31.282 8.97867 31.3287 9.41733 31.3287 10.052C31.3287 10.6867 31.0673 12.04 30.5447 14.112C30.022 16.184 29.7607 17.472 29.7607 17.976C29.7607 18.48 29.9473 18.732 30.3207 18.732C30.862 18.732 31.4873 18.536 32.1967 18.144C32.2713 17.696 32.458 16.8373 32.7567 15.568C33.4287 12.5813 33.7647 10.444 33.7647 9.156C34.418 8.89466 35.594 8.764 37.2927 8.764H37.8247C37.8247 9.64133 37.5633 11.3587 37.0407 13.916C36.518 16.4547 36.2567 17.948 36.2567 18.396C36.2567 18.8253 36.35 19.04 36.5367 19.04C36.6487 19.04 37.1807 18.816 38.1327 18.368L38.6647 19.264C37.0033 20.6453 35.5473 21.336 34.2967 21.336C33.6993 21.336 33.186 21.168 32.7567 20.832C32.346 20.496 32.1127 20.0573 32.0567 19.516C30.5447 20.748 29.1727 21.364 27.9407 21.364C27.2873 21.364 26.746 21.1493 26.3167 20.72C25.906 20.2907 25.7007 19.684 25.7007 18.9Z" fill="#4C997F"/>
<path d="M46.6453 25.928C45.9546 26.3947 45.292 26.7307 44.6573 26.936C44.0226 27.16 43.4066 27.272 42.8093 27.272C42.212 27.272 41.7266 27.104 41.3533 26.768C40.98 26.432 40.7933 25.9467 40.7933 25.312C40.7933 24.696 41.1946 24.108 41.9973 23.548C42.8 22.988 43.5933 22.6053 44.3773 22.4L45.5813 22.12L46.0013 19.88C44.9186 20.7013 43.8733 21.112 42.8653 21.112C41.876 21.112 41.064 20.7293 40.4293 19.964C39.8133 19.1987 39.5053 17.976 39.5053 16.296C39.5053 14.0933 40 12.264 40.9893 10.808C41.9786 9.33333 43.2853 8.596 44.9093 8.596C45.824 8.596 46.7293 8.82 47.6253 9.268C48.5773 8.932 49.604 8.764 50.7053 8.764L51.2933 8.792C51.3493 9.016 51.3773 9.33333 51.3773 9.744C51.3773 11.3867 50.7893 15.0733 49.6133 20.804C49.408 21.98 49.0346 23.0067 48.4933 23.884C47.952 24.78 47.336 25.4613 46.6453 25.928ZM46.1693 10.248C45.3666 10.248 44.732 10.9013 44.2653 12.208C43.7986 13.496 43.5653 14.9333 43.5653 16.52C43.5653 18.088 43.92 18.872 44.6293 18.872C45.096 18.872 45.6466 18.6947 46.2813 18.34C46.804 15.204 47.1773 12.6187 47.4013 10.584C46.8786 10.36 46.468 10.248 46.1693 10.248ZM42.0533 25.256C42.0533 25.6107 42.2586 25.788 42.6693 25.788C43.0986 25.788 43.5653 25.5453 44.0693 25.06C44.5733 24.5933 44.9746 24.0147 45.2733 23.324C44.6573 23.3987 43.9666 23.6227 43.2013 23.996C42.436 24.388 42.0533 24.808 42.0533 25.256Z" fill="#4C997F"/>
<path d="M60.6996 9.408C60.7369 9.37067 60.8396 9.128 61.0076 8.68C61.8849 8.68 63.0609 8.94133 64.5356 9.464C64.0689 11.0133 63.6956 12.6373 63.4156 14.336C63.1356 16.016 62.9956 17.22 62.9956 17.948C62.9956 18.6573 63.0702 19.012 63.2196 19.012C63.3316 19.012 63.7422 18.8347 64.4516 18.48L64.7876 18.312L65.2916 19.292C65.1236 19.4413 64.8996 19.628 64.6196 19.852C64.3582 20.076 63.8542 20.384 63.1076 20.776C62.3609 21.1493 61.6889 21.336 61.0916 21.336C59.9342 21.336 59.2622 20.8133 59.0756 19.768C57.8809 20.8133 56.7982 21.336 55.8276 21.336C54.8756 21.336 54.0636 20.9627 53.3916 20.216C52.7382 19.4693 52.4116 18.2933 52.4116 16.688C52.4116 14.1867 52.9249 12.2173 53.9516 10.78C54.9782 9.324 56.2196 8.596 57.6756 8.596C58.7209 8.596 59.7289 8.86666 60.6996 9.408ZM57.5076 18.956C57.9556 18.956 58.4596 18.7787 59.0196 18.424C59.1502 15.792 59.5889 13.188 60.3356 10.612C59.7756 10.3693 59.2996 10.248 58.9076 10.248C58.2356 10.248 57.6569 10.9107 57.1716 12.236C56.7049 13.5427 56.4716 14.9893 56.4716 16.576C56.4716 18.1627 56.8169 18.956 57.5076 18.956Z" fill="#4C997F"/>
<path d="M71.6047 10.332C71.6047 11.116 71.3527 12.4693 70.8487 14.392C70.3447 16.296 70.0927 17.5467 70.0927 18.144C70.0927 18.7227 70.1767 19.012 70.3447 19.012C70.4567 19.012 70.886 18.8347 71.6327 18.48L71.9687 18.312L72.4447 19.292C72.2767 19.4413 72.0527 19.628 71.7727 19.852C71.4927 20.076 70.97 20.384 70.2047 20.776C69.4394 21.1493 68.73 21.336 68.0767 21.336C67.4233 21.336 66.91 21.14 66.5367 20.748C66.1633 20.3373 65.9767 19.796 65.9767 19.124C65.9767 18.4333 66.21 17.22 66.6767 15.484C67.1434 13.7293 67.3767 12.5907 67.3767 12.068C67.3767 11.284 67.134 10.5467 66.6487 9.856L66.3967 9.52L66.4247 9.156C67.414 8.876 69.0193 8.736 71.2407 8.736C71.4834 9.016 71.6047 9.548 71.6047 10.332ZM68.4127 5.684C68.0394 5.31066 67.8527 4.816 67.8527 4.2C67.8527 3.584 68.1047 3.04266 68.6087 2.576C69.1314 2.10933 69.7287 1.876 70.4007 1.876C71.0727 1.876 71.5954 2.06266 71.9687 2.436C72.342 2.80933 72.5287 3.304 72.5287 3.92C72.5287 4.51733 72.258 5.04933 71.7167 5.516C71.194 5.98267 70.606 6.216 69.9527 6.216C69.2993 6.216 68.786 6.03866 68.4127 5.684Z" fill="#4C997F"/>
<path d="M74.1936 21.084H73.6616C73.6616 20.2067 73.9229 18.5267 74.4456 16.044C74.9869 13.5613 75.2576 12.152 75.2576 11.816C75.2576 11.2 74.9963 10.5467 74.4736 9.856L74.2216 9.52L74.2496 9.156C75.2576 8.876 76.8723 8.736 79.0936 8.736C79.3363 9.05333 79.4669 9.632 79.4856 10.472C81.1096 9.22133 82.4816 8.596 83.6016 8.596C84.2736 8.596 84.8056 8.82933 85.1976 9.296C85.6083 9.76267 85.8136 10.3507 85.8136 11.06C85.8136 11.7507 85.5989 12.9547 85.1696 14.672C84.7403 16.3893 84.5256 17.5467 84.5256 18.144C84.5256 18.7227 84.6003 19.012 84.7496 19.012C84.8616 19.012 85.2536 18.8347 85.9256 18.48L86.2616 18.312L86.7656 19.292C86.5976 19.4413 86.3736 19.628 86.0936 19.852C85.8136 20.076 85.2909 20.384 84.5256 20.776C83.7789 21.1493 83.1069 21.336 82.5096 21.336C81.1469 21.336 80.4656 20.5613 80.4656 19.012C80.4656 18.3587 80.6709 17.1547 81.0816 15.4C81.5109 13.6453 81.7256 12.516 81.7256 12.012C81.7256 11.508 81.5669 11.256 81.2496 11.256C80.7083 11.256 80.0456 11.4893 79.2616 11.956C79.2056 12.2733 79.0189 13.1133 78.7016 14.476C78.0483 17.4067 77.7216 19.4787 77.7216 20.692C77.0683 20.9533 75.8923 21.084 74.1936 21.084Z" fill="#4C997F"/>
<path d="M90.3723 8.596C91.1937 8.596 91.8003 8.764 92.1923 9.1C92.603 9.436 92.8083 10.1267 92.8083 11.172C92.8083 11.732 92.6403 12.88 92.3043 14.616C91.9683 16.3333 91.8003 17.3787 91.8003 17.752C91.8003 18.4987 91.9497 18.872 92.2483 18.872C92.9577 18.872 93.7323 18.3493 94.5723 17.304C95.431 16.24 95.879 15.3533 95.9163 14.644L94.0123 12.516C94.087 11.7133 94.283 10.9853 94.6003 10.332C94.9177 9.67867 95.2163 9.22133 95.4963 8.96L95.8883 8.596C96.691 8.596 97.2977 8.81066 97.7083 9.24C98.119 9.66933 98.3243 10.1733 98.3243 10.752C98.3243 12.2267 97.9603 13.7853 97.2323 15.428C96.5043 17.0707 95.5337 18.4707 94.3203 19.628C93.107 20.7667 91.875 21.336 90.6243 21.336C89.8403 21.336 89.2337 21.0933 88.8043 20.608C88.3937 20.1227 88.1883 19.488 88.1883 18.704C88.1883 17.9013 88.2443 16.828 88.3563 15.484C88.487 14.14 88.5523 12.8053 88.5523 11.48C88.5523 11.1813 88.4403 10.8267 88.2163 10.416C88.011 10.0053 87.7963 9.67867 87.5723 9.436L87.6563 9.1C88.6643 8.764 89.5697 8.596 90.3723 8.596Z" fill="#4C997F"/>
<path d="M104.472 10.332C104.472 11.116 104.22 12.4693 103.716 14.392C103.212 16.296 102.96 17.5467 102.96 18.144C102.96 18.7227 103.044 19.012 103.212 19.012C103.324 19.012 103.753 18.8347 104.5 18.48L104.836 18.312L105.312 19.292C105.144 19.4413 104.92 19.628 104.64 19.852C104.36 20.076 103.837 20.384 103.072 20.776C102.307 21.1493 101.597 21.336 100.944 21.336C100.291 21.336 99.7772 21.14 99.4039 20.748C99.0305 20.3373 98.8439 19.796 98.8439 19.124C98.8439 18.4333 99.0772 17.22 99.5439 15.484C100.011 13.7293 100.244 12.5907 100.244 12.068C100.244 11.284 100.001 10.5467 99.5159 9.856L99.2639 9.52L99.2919 9.156C100.281 8.876 101.887 8.736 104.108 8.736C104.351 9.016 104.472 9.548 104.472 10.332ZM101.28 5.684C100.907 5.31066 100.72 4.816 100.72 4.2C100.72 3.584 100.972 3.04266 101.476 2.576C101.999 2.10933 102.596 1.876 103.268 1.876C103.94 1.876 104.463 2.06266 104.836 2.436C105.209 2.80933 105.396 3.304 105.396 3.92C105.396 4.51733 105.125 5.04933 104.584 5.516C104.061 5.98267 103.473 6.216 102.82 6.216C102.167 6.216 101.653 6.03866 101.28 5.684Z" fill="#4C997F"/>
<path d="M108.461 21.336C107.826 21.336 107.294 21.1213 106.865 20.692C106.454 20.2627 106.249 19.6653 106.249 18.9C106.249 18.116 106.706 15.6427 107.621 11.48C108.554 7.29867 109.021 4.284 109.021 2.436L108.853 1.204C110.309 0.699998 111.671 0.447998 112.941 0.447998C113.127 0.709331 113.221 1.16666 113.221 1.82C113.221 3.31333 112.745 6.20667 111.793 10.5C110.859 14.7747 110.393 17.2667 110.393 17.976C110.393 18.6667 110.477 19.012 110.645 19.012L112.605 18.312L113.109 19.292C112.474 19.796 111.699 20.2627 110.785 20.692C109.889 21.1213 109.114 21.336 108.461 21.336Z" fill="#4C997F"/>
<path d="M115.898 21.336C115.264 21.336 114.732 21.1213 114.302 20.692C113.892 20.2627 113.686 19.6653 113.686 18.9C113.686 18.116 114.144 15.6427 115.058 11.48C115.992 7.29867 116.458 4.284 116.458 2.436L116.29 1.204C117.746 0.699998 119.109 0.447998 120.378 0.447998C120.565 0.709331 120.658 1.16666 120.658 1.82C120.658 3.31333 120.182 6.20667 119.23 10.5C118.297 14.7747 117.83 17.2667 117.83 17.976C117.83 18.6667 117.914 19.012 118.082 19.012L120.042 18.312L120.546 19.292C119.912 19.796 119.137 20.2627 118.222 20.692C117.326 21.1213 116.552 21.336 115.898 21.336Z" fill="#4C997F"/>
<path d="M121.068 16.156C121.068 13.8227 121.768 11.984 123.168 10.64C124.586 9.27733 126.192 8.596 127.984 8.596C129.085 8.596 129.99 8.86666 130.7 9.408C131.409 9.94933 131.764 10.6773 131.764 11.592C131.764 12.488 131.53 13.244 131.064 13.86C130.616 14.476 130.065 14.952 129.412 15.288C128.086 15.9413 126.873 16.352 125.772 16.52L125.1 16.604C125.23 18.3587 125.949 19.236 127.256 19.236C127.704 19.236 128.18 19.124 128.684 18.9C129.188 18.676 129.58 18.452 129.86 18.228L130.28 17.892L130.952 18.788C130.802 18.9933 130.504 19.264 130.056 19.6C129.608 19.936 129.188 20.216 128.796 20.44C127.713 21.0373 126.528 21.336 125.24 21.336C123.952 21.336 122.934 20.8787 122.188 19.964C121.441 19.0493 121.068 17.78 121.068 16.156ZM125.072 15.232C126.024 15.064 126.78 14.6627 127.34 14.028C127.9 13.3933 128.18 12.572 128.18 11.564C128.18 10.556 127.881 10.052 127.284 10.052C126.574 10.052 126.024 10.6587 125.632 11.872C125.258 13.0667 125.072 14.1867 125.072 15.232Z" fill="#4C997F"/>
<path d="M140.707 9.408C140.745 9.37067 140.847 9.128 141.015 8.68C141.893 8.68 143.069 8.94133 144.543 9.464C144.077 11.0133 143.703 12.6373 143.423 14.336C143.143 16.016 143.003 17.22 143.003 17.948C143.003 18.6573 143.078 19.012 143.227 19.012C143.339 19.012 143.75 18.8347 144.459 18.48L144.795 18.312L145.299 19.292C145.131 19.4413 144.907 19.628 144.627 19.852C144.366 20.076 143.862 20.384 143.115 20.776C142.369 21.1493 141.697 21.336 141.099 21.336C139.942 21.336 139.27 20.8133 139.083 19.768C137.889 20.8133 136.806 21.336 135.835 21.336C134.883 21.336 134.071 20.9627 133.399 20.216C132.746 19.4693 132.419 18.2933 132.419 16.688C132.419 14.1867 132.933 12.2173 133.959 10.78C134.986 9.324 136.227 8.596 137.683 8.596C138.729 8.596 139.737 8.86666 140.707 9.408ZM137.515 18.956C137.963 18.956 138.467 18.7787 139.027 18.424C139.158 15.792 139.597 13.188 140.343 10.612C139.783 10.3693 139.307 10.248 138.915 10.248C138.243 10.248 137.665 10.9107 137.179 12.236C136.713 13.5427 136.479 14.9893 136.479 16.576C136.479 18.1627 136.825 18.956 137.515 18.956Z" fill="#4C997F"/>
</svg>
